<mxfile host="app.diagrams.net" modified="2021-12-17T04:49:56.165Z" agent="5.0 (X11)" etag="W1lvXsYpoofgovHl92pu" version="15.9.6" type="github">
  <diagram id="UUT2NwmgjU91dId39FBX" name="Page-1">
    <mxGraphModel dx="771" dy="453" grid="1" gridSize="10" guides="1" tooltips="1" connect="1" arrows="1" fold="1" page="1" pageScale="1" pageWidth="850" pageHeight="1100" math="0" shadow="0">
      <root>
        <mxCell id="0" />
        <mxCell id="1" parent="0" />
        <mxCell id="pnsp2ghW4xfxfiq7u7KQ-1" value="Nft721 Portal " style="rounded=0;whiteSpace=wrap;html=1;" vertex="1" parent="1">
          <mxGeometry x="60" y="150" width="120" height="60" as="geometry" />
        </mxCell>
        <mxCell id="pnsp2ghW4xfxfiq7u7KQ-2" value="Swap Contract" style="rounded=0;whiteSpace=wrap;html=1;" vertex="1" parent="1">
          <mxGeometry x="290" y="150" width="120" height="60" as="geometry" />
        </mxCell>
        <mxCell id="pnsp2ghW4xfxfiq7u7KQ-3" value="&lt;div&gt;si&lt;br&gt;&lt;/div&gt;&lt;div&gt;deposit()&lt;/div&gt;" style="rounded=0;whiteSpace=wrap;html=1;" vertex="1" parent="1">
          <mxGeometry x="460" y="150" width="120" height="60" as="geometry" />
        </mxCell>
        <mxCell id="pnsp2ghW4xfxfiq7u7KQ-4" value="&lt;div align=&quot;left&quot;&gt;struct {&lt;/div&gt;&lt;div align=&quot;left&quot;&gt;&lt;span style=&quot;white-space: pre&quot;&gt;	&lt;/span&gt;sId&lt;/div&gt;&lt;div align=&quot;left&quot;&gt;&lt;span style=&quot;white-space: pre&quot;&gt;	&lt;/span&gt;assetsType&lt;/div&gt;&lt;div align=&quot;left&quot;&gt;&lt;span style=&quot;white-space: pre&quot;&gt;	&lt;/span&gt;assetsAddr&lt;br&gt;&lt;/div&gt;&lt;div align=&quot;left&quot;&gt;&lt;span style=&quot;white-space: pre&quot;&gt;	&lt;/span&gt;assetAmount&lt;/div&gt;&lt;div align=&quot;left&quot;&gt;&lt;span style=&quot;white-space: pre&quot;&gt;	&lt;/span&gt;cType&lt;br&gt;&lt;/div&gt;&lt;div align=&quot;left&quot;&gt;&lt;span style=&quot;white-space: pre&quot;&gt;	&lt;/span&gt;cAddr&lt;/div&gt;&lt;div align=&quot;left&quot;&gt;&lt;span style=&quot;white-space: pre&quot;&gt;	&lt;/span&gt;cAmount&lt;/div&gt;&lt;div align=&quot;left&quot;&gt;&lt;span style=&quot;white-space: pre&quot;&gt;	&lt;/span&gt;&lt;br&gt;&lt;/div&gt;&lt;div align=&quot;left&quot;&gt;&lt;span style=&quot;white-space: pre&quot;&gt;	&lt;/span&gt;&lt;br&gt;&lt;/div&gt;&lt;div align=&quot;left&quot;&gt;}&lt;br&gt;&lt;/div&gt;&lt;div align=&quot;left&quot;&gt;1. sId 兑换条件&lt;/div&gt;&lt;div align=&quot;left&quot;&gt;&lt;br&gt;&lt;/div&gt;" style="shape=note;whiteSpace=wrap;html=1;backgroundOutline=1;darkOpacity=0.05;fillColor=#fff2cc;strokeColor=#d6b656;align=left;" vertex="1" parent="1">
          <mxGeometry x="640" y="160" width="250" height="90" as="geometry" />
        </mxCell>
      </root>
    </mxGraphModel>
  </diagram>
</mxfile>
